# File created by Blade
# Date/Time:  Thu Jan 22 16:36:34 2015
#---------------------------------------------------------
:version 1.10
:name HOM
:units
  mass 1.0
  length 1.000000
  angle deg
:documentation
     Acclaim Skeleton File
:root
   axis xyz
   order TX TY TZ RX RY RZ
   position 0.000000 0.000000 0.000000
   orientation 0 0 0
:bonedata
   begin
      id 1
      name RightUpLeg_dum
      direction -1.000000 0.000000 0.000000
      length 3.766986
      axis 0.0 0.0 0.0 xyz
   end
   begin
      id 2
      name LeftUpLeg_dum
      direction 1.000000 0.000000 0.000000
      length 3.766986
      axis 0.0 0.0 0.0 xyz
   end
   begin
      id 3
      name Spine_dum
      direction 0.000000 1.000000 0.000000
      length 7.779697
      axis 0.0 0.0 0.0 xyz
   end
   begin
      id 4
      name RightUpLeg
      direction 0.000000 -1.000000 0.000000
      length 18.017682
      axis 0.0 0.0 0.0 xyz
      dof rx ry rz
   end
   begin
      id 5
      name RightLeg
      direction 0.000000 -1.000000 0.000000
      length 16.881075
      axis 0.0 0.0 0.0 xyz
      dof rx ry rz
   end
   begin
      id 6
      name RightFoot
      direction 0.000000 -0.258819 0.965926
      length 5.770812
      axis 15.0 0.0 0.0 xyz
      dof rx ry rz
   end
   begin
      id 7
      name RightToeBase
      direction 0.000000 0.000000 1.000000
      length 2.952750
      axis 0.0 0.0 0.0 xyz
      dof rx ry rz
   end
   begin
      id 8
      name LeftUpLeg
      direction 0.000000 -1.000000 0.000000
      length 18.017682
      axis 0.0 0.0 0.0 xyz
      dof rx ry rz
   end
   begin
      id 9
      name LeftLeg
      direction 0.000000 -1.000000 0.000000
      length 16.881075
      axis 0.0 0.0 0.0 xyz
      dof rx ry rz
   end
   begin
      id 10
      name LeftFoot
      direction 0.000000 -0.258819 0.965926
      length 5.770812
      axis 15.0 0.0 0.0 xyz
      dof rx ry rz
   end
   begin
      id 11
      name LeftToeBase
      direction 0.000000 0.000000 1.000000
      length 2.952750
      axis 0.0 0.0 0.0 xyz
      dof rx ry rz
   end
   begin
      id 12
      name Spine
      direction 0.000000 1.000000 0.000000
      length 0.000000
      axis 0.0 0.0 0.0 xyz
      dof rx ry rz
   end
   begin
      id 13
      name Spine_dum1
      direction 0.000000 1.000000 0.000000
      length 10.941760
      axis 0.0 0.0 0.0 xyz
   end
   begin
      id 14
      name Spine_dum2
      direction 0.000000 1.000000 0.000000
      length 10.941760
      axis 0.0 0.0 0.0 xyz
   end
   begin
      id 15
      name Spine_dum3
      direction 0.000000 1.000000 0.000000
      length 16.646042
      axis 0.0 0.0 0.0 xyz
   end
   begin
      id 16
      name RightShoulder
      direction -1.000000 0.000000 0.000000
      length 7.708937
      axis 0.0 0.0 90.0 xyz
      dof rx ry rz
   end
   begin
      id 17
      name RightArm
      direction -1.000000 0.000000 0.000000
      length 11.521345
      axis 0.0 0.0 90.0 xyz
      dof rx ry rz
   end
   begin
      id 18
      name RightForeArm
      direction -1.000000 0.000000 0.000000
      length 10.175898
      axis 0.0 0.0 90.0 xyz
      dof ry rz rx
   end
   begin
      id 19
      name RightHand
      direction -1.000000 0.000000 0.000000
      length 0.000000
      axis 0.0 0.0 90.0 xyz
      dof rx ry rz
   end
   begin
      id 20
      name RightHand_dum1
      direction -1.000000 0.000000 0.000000
      length 3.937000
      axis 0.0 0.0 90.0 xyz
   end
   begin
      id 21
      name RightHand_dum2
      direction 0.000000 0.000000 0.000000
      length 0.000000
      axis 0.0 0.0 90.0 xyz
   end
   begin
      id 22
      name RightHandThumb1
      direction 0.000000 0.000000 1.000000
      length 3.937000
      axis 0.0 0.0 90.0 xyz
      dof rx rz ry
   end
   begin
      id 23
      name LeftShoulder
      direction 1.000000 0.000000 0.000000
      length 7.708937
      axis 0.0 0.0 -90.0 xyz
      dof rx ry rz
   end
   begin
      id 24
      name LeftArm
      direction 1.000000 0.000000 0.000000
      length 11.521345
      axis 0.0 0.0 -90.0 xyz
      dof rx ry rz
   end
   begin
      id 25
      name LeftForeArm
      direction 1.000000 0.000000 0.000000
      length 10.175898
      axis 0.0 0.0 -90.0 xyz
      dof ry rz rx
   end
   begin
      id 26
      name LeftHand
      direction 1.000000 0.000000 0.000000
      length 0.000000
      axis 0.0 0.0 -90.0 xyz
      dof rx ry rz
   end
   begin
      id 27
      name LeftHand_dum1
      direction 1.000000 0.000000 0.000000
      length 3.937000
      axis 0.0 0.0 -90.0 xyz
   end
   begin
      id 28
      name LeftHand_dum2
      direction 0.000000 0.000000 0.000000
      length 0.000000
      axis 0.0 0.0 -90.0 xyz
   end
   begin
      id 29
      name LeftHandThumb1
      direction 0.000000 0.000000 1.000000
      length 3.937000
      axis 0.0 0.0 -90.0 xyz
      dof rx rz ry
   end
   begin
      id 30
      name Head
      direction 0.000000 1.000000 0.000000
      length 4.527550
      axis 0.0 0.0 0.0 xyz
      dof rx ry rz
   end
:hierarchy
   begin
      root RightUpLeg_dum LeftUpLeg_dum Spine_dum
      RightUpLeg_dum RightUpLeg
      LeftUpLeg_dum LeftUpLeg
      Spine_dum Spine
      RightUpLeg RightLeg
      RightLeg RightFoot
      RightFoot RightToeBase
      LeftUpLeg LeftLeg
      LeftLeg LeftFoot
      LeftFoot LeftToeBase
      Spine Spine_dum1 Spine_dum2 Spine_dum3
      Spine_dum1 RightShoulder
      Spine_dum2 LeftShoulder
      Spine_dum3 Head
      RightShoulder RightArm
      RightArm RightForeArm
      RightForeArm RightHand
      RightHand RightHand_dum1 RightHand_dum2
      RightHand_dum2 RightHandThumb1
      LeftShoulder LeftArm
      LeftArm LeftForeArm
      LeftForeArm LeftHand
      LeftHand LeftHand_dum1 LeftHand_dum2
      LeftHand_dum2 LeftHandThumb1
   end

# File created by Blade
# Date/Time:  Thu Jan 22 16:36:26 2015
# Frame Rate: 120.000 fps
#------------------------------------------------------
:FULLY-SPECIFIED
:DEGREES
797
root 2.729653 3.387721 -11.300536 -64.243788 9.547063 -0.504201
RightUpLeg -23.192769 -12.969261 -9.169959
RightLeg -0.725261 -0.000000 0.000000
RightFoot 2.213098 -32.854704 29.457509
RightToeBase 7.553904 -0.000000 -0.000000
LeftUpLeg -115.749616 16.843664 -54.849400
LeftLeg 138.220242 -0.000000 -0.000000
LeftFoot 31.044973 -2.658144 -60.102415
LeftToeBase -5.695418 -0.000000 0.000000
Spine 73.165679 -0.830219 -7.927011
RightShoulder 13.987972 -12.436336 -20.291138
RightArm 30.041353 -9.454399 83.252808
RightForeArm 56.795316 -0.000000 94.964171
RightHand 10.018048 -0.000000 -24.280288
RightHandThumb1 -24.326973 -0.000000 -32.862282
LeftShoulder -3.583659 26.073081 33.566770
LeftArm 83.015611 21.946451 -72.093580
LeftForeArm 18.673302 -0.000000 65.607995
LeftHand -28.848061 -0.000000 -15.861469
LeftHandThumb1 -26.253704 0.000000 33.147579
Head 7.544458 4.721520 8.961422
798
root 2.715678 3.388437 -11.302449 -64.247668 9.525697 -0.416593
RightUpLeg -23.190343 -12.763333 -9.194037
RightLeg -0.735660 -0.000000 0.000000
RightFoot 2.188771 -32.938478 29.478393
RightToeBase 7.849180 -0.000000 -0.000000
LeftUpLeg -115.948461 16.925525 -54.841497
LeftLeg 138.321001 -0.000000 -0.000000
LeftFoot 31.080911 -2.677509 -60.066328
LeftToeBase -5.795499 -0.000000 0.000000
Spine 73.108735 -0.670178 -7.861385
RightShoulder 13.960295 -12.423081 -20.355082
RightArm 30.003874 -9.585537 83.221196
RightForeArm 56.925008 0.000000 94.923623
RightHand 10.341601 -0.000000 -24.507460
RightHandThumb1 -24.326973 -0.000000 -32.862282
LeftShoulder -3.595326 26.155998 33.576895
LeftArm 83.074443 21.977877 -72.006609
LeftForeArm 18.813883 -0.000000 65.657401
LeftHand -28.918477 -0.000000 -15.645643
LeftHandThumb1 -26.253704 0.000000 33.147579
Head 7.732874 4.516517 8.816267
799
root 2.706382 3.390890 -11.305914 -64.274700 9.561058 -0.329284
RightUpLeg -23.156299 -12.594659 -9.279005
RightLeg -0.753958 -0.000000 0.000000
RightFoot 2.194317 -32.981880 29.455058
RightToeBase 7.764067 -0.000000 -0.000000
LeftUpLeg -116.088153 17.017981 -54.870920
LeftLeg 138.384398 -0.000000 -0.000000
LeftFoot 31.188231 -2.638325 -60.046466
LeftToeBase -5.993644 -0.000000 0.000000
Spine 73.090707 -0.518240 -7.873764
RightShoulder 13.958864 -12.413252 -20.421120
RightArm 29.929184 -9.643115 83.208129
RightForeArm 56.975126 -0.000000 94.958660
RightHand 10.204659 -0.000000 -24.452362
RightHandThumb1 -24.326973 -0.000000 -32.862282
LeftShoulder -3.659320 26.175281 33.607784
LeftArm 83.088755 22.040332 -71.942766
LeftForeArm 18.882712 -0.000000 65.655990
LeftHand -28.802958 -0.000000 -15.627818
LeftHandThumb1 -26.253704 0.000000 33.147579
Head 7.886080 4.335598 8.699341
800
root 2.691928 3.392326 -11.306605 -64.288735 9.526734 -0.230813
RightUpLeg -23.135389 -12.333579 -9.311339
RightLeg -0.773431 -0.000000 0.000000
RightFoot 2.174345 -33.023178 29.455473
RightToeBase 7.730081 -0.000000 -0.000000
LeftUpLeg -116.266394 17.159617 -54.787416
LeftLeg 138.479154 -0.000000 -0.000000
LeftFoot 31.395925 -2.666192 -60.125971
LeftToeBase -6.020618 -0.000000 0.000000
Spine 73.041800 -0.331960 -7.816961
RightShoulder 13.964427 -12.409042 -20.468518
RightArm 29.906289 -9.774296 83.139437
RightForeArm 57.132058 -0.000000 94.951433
RightHand 10.501203 -0.000000 -24.712028
RightHandThumb1 -24.326973 -0.000000 -32.862282
LeftShoulder -3.701115 26.197752 33.629809
LeftArm 83.115213 22.081455 -71.832455
LeftForeArm 18.840963 0.000000 65.644859
LeftHand -28.755768 -0.000000 -15.562802
LeftHandThumb1 -26.253704 0.000000 33.147579
Head 8.056663 4.164554 8.578297
801
root 2.680172 3.393236 -11.309093 -64.303124 9.522674 -0.127034
RightUpLeg -23.120063 -12.083146 -9.377795
RightLeg -0.779579 -0.000000 0.000000
RightFoot 2.176482 -33.004231 29.408220
RightToeBase 7.623053 -0.000000 -0.000000
LeftUpLeg -116.448762 17.274290 -54.787786
LeftLeg 138.609377 -0.000000 -0.000000
LeftFoot 31.348172 -2.669794 -60.162113
LeftToeBase -5.677929 -0.000000 0.000000
Spine 73.009723 -0.152590 -7.787015
RightShoulder 13.974188 -12.400084 -20.531639
RightArm 29.815955 -9.809620 83.148269
RightForeArm 57.167164 -0.000000 95.066138
RightHand 10.167537 -0.000000 -24.751654
RightHandThumb1 -24.326973 -0.000000 -32.862282
LeftShoulder -3.750537 26.205246 33.641832
LeftArm 83.103881 22.137542 -71.775606
LeftForeArm 18.707323 0.000000 65.671224
LeftHand -28.728856 0.000000 -15.970616
LeftHandThumb1 -26.253704 0.000000 33.147579
Head 8.176545 4.025964 8.463731
802
root 2.668967 3.393810 -11.311304 -64.328803 9.516211 -0.031702
RightUpLeg -23.093118 -11.833217 -9.442266
RightLeg -0.774566 -0.000000 0.000000
RightFoot 2.207025 -32.947398 29.376944
RightToeBase 7.673744 -0.000000 -0.000000
LeftUpLeg -116.623363 17.392367 -54.776492
LeftLeg 138.723221 -0.000000 -0.000000
LeftFoot 31.407027 -2.655206 -60.201397
LeftToeBase -5.839453 -0.000000 0.000000
Spine 72.993723 0.023513 -7.732531
RightShoulder 13.957882 -12.408710 -20.595689
RightArm 29.783871 -9.921435 83.113867
RightForeArm 57.187937 -0.000000 95.141375
RightHand 10.239037 0.000000 -25.027988
RightHandThumb1 -24.326973 -0.000000 -32.862282
LeftShoulder -3.789655 26.234773 33.668436
LeftArm 83.126079 22.185606 -71.716299
LeftForeArm 18.526305 -0.000000 65.674506
LeftHand -28.520007 -0.000000 -16.401216
LeftHandThumb1 -26.253704 0.000000 33.147579
Head 8.249716 3.897370 8.347444
803
root 2.660850 3.394534 -11.316684 -64.349841 9.562130 0.082919
RightUpLeg -23.071310 -11.564562 -9.578230
RightLeg -0.752213 -0.000000 0.000000
RightFoot 2.229731 -32.930941 29.338980
RightToeBase 7.646284 -0.000000 -0.000000
LeftUpLeg -116.792263 17.477527 -54.899062
LeftLeg 138.862336 -0.000000 -0.000000
LeftFoot 31.154015 -2.703870 -60.028453
LeftToeBase -5.686816 -0.000000 0.000000
Spine 72.990952 0.210210 -7.743434
RightShoulder 13.959261 -12.414478 -20.660947
RightArm 29.767672 -10.036813 83.090286
RightForeArm 57.221298 -0.000000 95.222377
RightHand 10.426402 0.000000 -25.410579
RightHandThumb1 -24.326973 -0.000000 -32.862282
LeftShoulder -3.838898 26.258231 33.731933
LeftArm 83.131290 22.248908 -71.668191
LeftForeArm 18.520371 -0.000000 65.730820
LeftHand -28.578054 -0.000000 -16.287496
LeftHandThumb1 -26.253704 0.000000 33.147579
Head 8.284814 3.799997 8.265096
804
root 2.650272 3.393425 -11.320619 -64.361430 9.567816 0.186960
RightUpLeg -23.070421 -11.292926 -9.658331
RightLeg -0.733242 -0.000000 0.000000
RightFoot 2.280823 -32.828137 29.323229
RightToeBase 7.695018 -0.000000 -0.000000
LeftUpLeg -116.965316 17.586904 -54.915374
LeftLeg 138.941235 -0.000000 -0.000000
LeftFoot 31.198660 -2.662562 -60.043115
LeftToeBase -5.680003 -0.000000 0.000000
Spine 72.973971 0.387915 -7.708053
RightShoulder 13.959964 -12.368083 -20.727455
RightArm 29.681483 -10.130179 83.099293
RightForeArm 57.240640 -0.000000 95.286533
RightHand 10.492680 -0.000000 -25.555407
RightHandThumb1 -24.326973 -0.000000 -32.862282
LeftShoulder -3.874320 26.274032 33.779682
LeftArm 83.142384 22.303597 -71.609483
LeftForeArm 18.692302 -0.000000 65.793156
LeftHand -28.813177 -0.000000 -15.936510
LeftHandThumb1 -26.253704 0.000000 33.147579
Head 8.303942 3.674330 8.154844
805
root 2.643862 3.398114 -11.325790 -64.418144 9.629872 0.184998
RightUpLeg -22.990456 -11.158931 -9.751920
RightLeg -0.736737 -0.000000 0.000000
RightFoot 2.385031 -32.764712 29.192815
RightToeBase 7.609319 -0.000000 -0.000000
LeftUpLeg -117.005061 17.655011 -54.900677
LeftLeg 139.028111 -0.000000 -0.000000
LeftFoot 31.206200 -2.743738 -60.009634
LeftToeBase -5.658871 -0.000000 0.000000
Spine 73.014263 0.442548 -7.663682
RightShoulder 13.952685 -12.333531 -20.787274
RightArm 29.606441 -10.198882 83.096720
RightForeArm 57.330654 -0.000000 95.326742
RightHand 10.588164 -0.000000 -25.608297
RightHandThumb1 -24.326973 -0.000000 -32.862282
LeftShoulder -3.906905 26.292659 33.813165
LeftArm 83.153243 22.334445 -71.548513
LeftForeArm 18.809580 0.000000 65.818870
LeftHand -28.725744 0.000000 -15.793716
LeftHandThumb1 -26.253704 0.000000 33.147579
Head 8.295636 3.562409 8.030996
